<mxfile host="app.diagrams.net" modified="2020-12-24T07:47:37.532Z" agent="5.0 (Windows NT 10.0; Win64; x64) AppleWebKit/537.36 (KHTML, like Gecko) Chrome/87.0.4280.88 Safari/537.36" etag="VGs6XDg60kVtCcNWlTf0" version="14.1.2" type="github">
  <diagram id="C5RBs43oDa-KdzZeNtuy" name="Page-1">
    <mxGraphModel dx="1422" dy="762" grid="1" gridSize="10" guides="1" tooltips="1" connect="1" arrows="1" fold="1" page="1" pageScale="1" pageWidth="827" pageHeight="1169" math="0" shadow="0">
      <root>
        <mxCell id="WIyWlLk6GJQsqaUBKTNV-0" />
        <mxCell id="WIyWlLk6GJQsqaUBKTNV-1" parent="WIyWlLk6GJQsqaUBKTNV-0" />
        <mxCell id="sNflH9_Xu9aTYOmNW74D-0" value="&lt;pre&gt;&lt;span style=&quot;background-color: rgb(255 , 206 , 159)&quot;&gt;&lt;b style=&quot;font-size: 18px ; font-family: &amp;#34;verdana&amp;#34; ; white-space: normal&quot;&gt;&amp;nbsp;[parking-report]&amp;nbsp;&lt;/b&gt;&lt;font style=&quot;font-size: 18px&quot; face=&quot;Verdana&quot;&gt;&lt;b&gt;停车入场事件上报 &lt;/b&gt;&lt;/font&gt;&lt;/span&gt;&lt;/pre&gt;" style="rounded=1;whiteSpace=wrap;html=1;align=left;fillColor=#FFCE9F;dashed=1;strokeColor=#FFB570;" vertex="1" parent="WIyWlLk6GJQsqaUBKTNV-1">
          <mxGeometry x="40" y="120" width="440" height="40" as="geometry" />
        </mxCell>
        <mxCell id="sNflH9_Xu9aTYOmNW74D-1" value="&lt;pre&gt;&lt;span style=&quot;background-color: rgb(154 , 199 , 191)&quot;&gt;&lt;b style=&quot;font-size: 18px ; font-family: &amp;#34;verdana&amp;#34; ; white-space: normal&quot;&gt;&amp;nbsp;[mot-server-web]&amp;nbsp;&lt;/b&gt;&lt;font style=&quot;font-size: 18px&quot; face=&quot;Verdana&quot;&gt;&lt;b&gt;MOT前置接收&lt;/b&gt;&lt;/font&gt;&lt;/span&gt;&lt;/pre&gt;" style="rounded=1;whiteSpace=wrap;html=1;align=left;fillColor=#9AC7BF;strokeColor=#9AC7BF;" vertex="1" parent="WIyWlLk6GJQsqaUBKTNV-1">
          <mxGeometry x="40" y="240" width="440" height="40" as="geometry" />
        </mxCell>
        <mxCell id="sNflH9_Xu9aTYOmNW74D-2" value="&lt;pre&gt;&lt;span style=&quot;background-color: rgb(154 , 199 , 191)&quot;&gt;&lt;b style=&quot;font-size: 18px ; font-family: &amp;#34;verdana&amp;#34; ; white-space: normal&quot;&gt;&amp;nbsp;[mot-scene-filter]&amp;nbsp;&lt;/b&gt;&lt;font style=&quot;font-size: 18px&quot; face=&quot;Verdana&quot;&gt;&lt;b&gt;MOT规则校验&lt;/b&gt;&lt;/font&gt;&lt;/span&gt;&lt;/pre&gt;" style="rounded=1;whiteSpace=wrap;html=1;align=left;fillColor=#9AC7BF;strokeColor=#9AC7BF;" vertex="1" parent="WIyWlLk6GJQsqaUBKTNV-1">
          <mxGeometry x="40" y="400" width="440" height="40" as="geometry" />
        </mxCell>
        <mxCell id="sNflH9_Xu9aTYOmNW74D-3" value="&lt;pre&gt;&lt;span style=&quot;background-color: rgb(154 , 199 , 191)&quot;&gt;&lt;font style=&quot;font-size: 18px&quot; face=&quot;Verdana&quot;&gt;&lt;b&gt; &lt;/b&gt;&lt;/font&gt;&lt;b style=&quot;font-size: 18px ; font-family: &amp;#34;verdana&amp;#34; ; white-space: normal&quot;&gt;[mot-msg-handle]&amp;nbsp;&lt;/b&gt;&lt;b style=&quot;font-size: 18px ; font-family: &amp;#34;verdana&amp;#34; ; white-space: normal&quot;&gt;MOT任务处理&lt;/b&gt;&lt;/span&gt;&lt;/pre&gt;" style="rounded=1;whiteSpace=wrap;html=1;align=left;strokeColor=#9AC7BF;fillColor=#9AC7BF;" vertex="1" parent="WIyWlLk6GJQsqaUBKTNV-1">
          <mxGeometry x="40" y="704" width="440" height="40" as="geometry" />
        </mxCell>
        <mxCell id="sNflH9_Xu9aTYOmNW74D-4" value="" style="endArrow=classic;html=1;strokeWidth=2;" edge="1" parent="WIyWlLk6GJQsqaUBKTNV-1">
          <mxGeometry width="50" height="50" relative="1" as="geometry">
            <mxPoint x="80" y="170" as="sourcePoint" />
            <mxPoint x="80" y="230" as="targetPoint" />
          </mxGeometry>
        </mxCell>
        <mxCell id="sNflH9_Xu9aTYOmNW74D-5" value="" style="endArrow=classic;html=1;strokeWidth=2;" edge="1" parent="WIyWlLk6GJQsqaUBKTNV-1">
          <mxGeometry width="50" height="50" relative="1" as="geometry">
            <mxPoint x="80" y="290" as="sourcePoint" />
            <mxPoint x="80" y="390" as="targetPoint" />
          </mxGeometry>
        </mxCell>
        <mxCell id="sNflH9_Xu9aTYOmNW74D-6" value="" style="endArrow=classic;html=1;strokeWidth=2;" edge="1" parent="WIyWlLk6GJQsqaUBKTNV-1">
          <mxGeometry width="50" height="50" relative="1" as="geometry">
            <mxPoint x="80" y="450" as="sourcePoint" />
            <mxPoint x="80" y="510" as="targetPoint" />
          </mxGeometry>
        </mxCell>
        <mxCell id="sNflH9_Xu9aTYOmNW74D-7" value="&lt;pre&gt;&lt;span style=&quot;background-color: rgb(154 , 199 , 191)&quot;&gt;&lt;font style=&quot;font-size: 18px&quot; face=&quot;Verdana&quot;&gt;&lt;b&gt; &lt;/b&gt;&lt;/font&gt;&lt;b style=&quot;font-size: 18px ; font-family: &amp;#34;verdana&amp;#34; ; white-space: normal&quot;&gt;[mot-msg-sender]&amp;nbsp;&lt;/b&gt;&lt;b style=&quot;font-size: 18px ; font-family: &amp;#34;verdana&amp;#34; ; white-space: normal&quot;&gt;MOT发送服务(积分、券)&lt;/b&gt;&lt;/span&gt;&lt;/pre&gt;" style="rounded=1;whiteSpace=wrap;html=1;align=left;fillColor=#9AC7BF;strokeColor=#9AC7BF;" vertex="1" parent="WIyWlLk6GJQsqaUBKTNV-1">
          <mxGeometry x="40" y="824" width="440" height="40" as="geometry" />
        </mxCell>
        <mxCell id="sNflH9_Xu9aTYOmNW74D-8" value="" style="endArrow=classic;html=1;strokeWidth=2;" edge="1" parent="WIyWlLk6GJQsqaUBKTNV-1">
          <mxGeometry width="50" height="50" relative="1" as="geometry">
            <mxPoint x="80" y="754" as="sourcePoint" />
            <mxPoint x="80" y="814" as="targetPoint" />
          </mxGeometry>
        </mxCell>
        <mxCell id="sNflH9_Xu9aTYOmNW74D-9" value="&lt;span style=&quot;color: rgb(255 , 255 , 255) ; white-space: normal&quot;&gt;&lt;font style=&quot;font-size: 14px&quot;&gt;&amp;nbsp;MQ : ${env}_yinli_mot_event&lt;/font&gt;&lt;/span&gt;" style="rounded=0;whiteSpace=wrap;html=1;dashed=1;strokeColor=#9AC7BF;fillColor=#006633;align=left;" vertex="1" parent="WIyWlLk6GJQsqaUBKTNV-1">
          <mxGeometry x="100" y="180" width="340" height="40" as="geometry" />
        </mxCell>
        <mxCell id="sNflH9_Xu9aTYOmNW74D-10" value="&lt;span style=&quot;color: rgb(255 , 255 , 255) ; white-space: normal&quot;&gt;&lt;font style=&quot;font-size: 14px&quot;&gt;&amp;nbsp;MQ : ${env}_yinli_mot_event_scene&lt;/font&gt;&lt;/span&gt;" style="rounded=0;whiteSpace=wrap;html=1;dashed=1;strokeColor=#9AC7BF;fillColor=#006633;align=left;" vertex="1" parent="WIyWlLk6GJQsqaUBKTNV-1">
          <mxGeometry x="100" y="340" width="340" height="40" as="geometry" />
        </mxCell>
        <mxCell id="sNflH9_Xu9aTYOmNW74D-11" value="&lt;span style=&quot;color: rgb(255 , 255 , 255) ; white-space: normal&quot;&gt;&lt;font style=&quot;font-size: 14px&quot;&gt;&amp;nbsp;MQ : ${env}_yinli_mot_scene_task&lt;/font&gt;&lt;/span&gt;" style="rounded=0;whiteSpace=wrap;html=1;dashed=1;strokeColor=#9AC7BF;fillColor=#006633;align=left;" vertex="1" parent="WIyWlLk6GJQsqaUBKTNV-1">
          <mxGeometry x="100" y="500" width="340" height="40" as="geometry" />
        </mxCell>
        <mxCell id="sNflH9_Xu9aTYOmNW74D-12" value="&lt;span style=&quot;color: rgb(255 , 255 , 255) ; white-space: normal&quot;&gt;&lt;font style=&quot;font-size: 14px&quot;&gt;&amp;nbsp;MQ : ${env}_yinli_mot_task&lt;/font&gt;&lt;/span&gt;" style="rounded=0;whiteSpace=wrap;html=1;dashed=1;strokeColor=#9AC7BF;fillColor=#006633;align=left;" vertex="1" parent="WIyWlLk6GJQsqaUBKTNV-1">
          <mxGeometry x="100" y="768" width="340" height="40" as="geometry" />
        </mxCell>
        <mxCell id="sNflH9_Xu9aTYOmNW74D-13" value="&lt;font style=&quot;font-size: 14px&quot;&gt;&lt;b&gt;&amp;nbsp;BIZ : 查询会员状态，正常则继续，异常则结束&lt;/b&gt;&lt;/font&gt;" style="rounded=0;whiteSpace=wrap;html=1;dashed=1;strokeColor=#006633;strokeWidth=1;fillColor=#FFD966;align=left;" vertex="1" parent="WIyWlLk6GJQsqaUBKTNV-1">
          <mxGeometry x="100" y="300" width="340" height="40" as="geometry" />
        </mxCell>
        <mxCell id="sNflH9_Xu9aTYOmNW74D-14" value="&lt;font style=&quot;font-size: 14px&quot;&gt;&lt;b&gt;&amp;nbsp;BIZ : 根据GroupType校验，&lt;/b&gt;&lt;/font&gt;" style="rounded=0;whiteSpace=wrap;html=1;dashed=1;strokeColor=#006633;strokeWidth=1;fillColor=#FFD966;align=left;" vertex="1" parent="WIyWlLk6GJQsqaUBKTNV-1">
          <mxGeometry x="100" y="460" width="340" height="40" as="geometry" />
        </mxCell>
        <mxCell id="sNflH9_Xu9aTYOmNW74D-15" value="&lt;pre&gt;&lt;span style=&quot;background-color: rgb(154 , 199 , 191)&quot;&gt;&lt;font style=&quot;font-size: 18px&quot; face=&quot;Verdana&quot;&gt;&lt;b&gt; &lt;/b&gt;&lt;/font&gt;&lt;b style=&quot;font-size: 18px ; font-family: &amp;#34;verdana&amp;#34; ; white-space: normal&quot;&gt;[mot-msg-handle]&amp;nbsp;&lt;/b&gt;&lt;b style=&quot;font-size: 18px ; font-family: &amp;#34;verdana&amp;#34; ; white-space: normal&quot;&gt;MOT任务处理&lt;/b&gt;&lt;/span&gt;&lt;/pre&gt;" style="rounded=1;whiteSpace=wrap;html=1;align=left;strokeColor=#9AC7BF;fillColor=#9AC7BF;" vertex="1" parent="WIyWlLk6GJQsqaUBKTNV-1">
          <mxGeometry x="40" y="704" width="440" height="40" as="geometry" />
        </mxCell>
        <mxCell id="sNflH9_Xu9aTYOmNW74D-16" value="&lt;pre&gt;&lt;span style=&quot;background-color: rgb(154 , 199 , 191)&quot;&gt;&lt;font style=&quot;font-size: 18px&quot; face=&quot;Verdana&quot;&gt;&lt;b&gt; &lt;/b&gt;&lt;/font&gt;&lt;b style=&quot;font-size: 18px ; font-family: &amp;#34;verdana&amp;#34; ; white-space: normal&quot;&gt;[mot-msg-sender]&amp;nbsp;&lt;/b&gt;&lt;b style=&quot;font-size: 18px ; font-family: &amp;#34;verdana&amp;#34; ; white-space: normal&quot;&gt;MOT发送服务(积分、券)&lt;/b&gt;&lt;/span&gt;&lt;/pre&gt;" style="rounded=1;whiteSpace=wrap;html=1;align=left;fillColor=#9AC7BF;strokeColor=#9AC7BF;" vertex="1" parent="WIyWlLk6GJQsqaUBKTNV-1">
          <mxGeometry x="40" y="824" width="440" height="40" as="geometry" />
        </mxCell>
        <mxCell id="sNflH9_Xu9aTYOmNW74D-17" value="" style="endArrow=classic;html=1;strokeWidth=2;" edge="1" parent="WIyWlLk6GJQsqaUBKTNV-1">
          <mxGeometry width="50" height="50" relative="1" as="geometry">
            <mxPoint x="80" y="754" as="sourcePoint" />
            <mxPoint x="80" y="814" as="targetPoint" />
          </mxGeometry>
        </mxCell>
        <mxCell id="sNflH9_Xu9aTYOmNW74D-18" value="&lt;span style=&quot;color: rgb(255 , 255 , 255) ; white-space: normal&quot;&gt;&lt;font style=&quot;font-size: 14px&quot;&gt;&amp;nbsp;MQ : ${env}_yinli_mot_task&lt;/font&gt;&lt;/span&gt;" style="rounded=0;whiteSpace=wrap;html=1;dashed=1;strokeColor=#9AC7BF;fillColor=#006633;align=left;" vertex="1" parent="WIyWlLk6GJQsqaUBKTNV-1">
          <mxGeometry x="100" y="768" width="340" height="40" as="geometry" />
        </mxCell>
      </root>
    </mxGraphModel>
  </diagram>
</mxfile>
